<svg width="28" height="18" viewBox="0 0 28 18" fill="none" xmlns="http://www.w3.org/2000/svg">
<path d="M16.6 7.33208V2.40412C16.6 1.29347 16.4037 1.0708 15.326 1.0708L12.271 1.00013C11.3194 1.00013 10.8436 1.00013 10.6512 1.31613C10.4588 1.63213 10.672 2.06546 11.0971 2.92945C11.3337 3.40945 11.4611 3.75744 11.4611 4.29611V7.84274C11.4611 8.96273 11.4611 9.52406 11.0451 9.69073C10.6291 9.85606 10.2846 9.48006 9.59299 8.72807C7.903 6.88275 7.02161 4.57877 6.44311 2.06679C6.32351 1.5468 6.26371 1.2868 6.08431 1.1428C5.90491 0.998801 5.64881 1.00013 5.13922 1.00013H2.27923C1.65264 1.00013 1.33934 1.00013 1.14304 1.2268C0.948042 1.4548 0.985741 1.74546 1.06114 2.32546C1.74754 7.56141 6.23641 16.1467 14.5291 16.9653C15.9981 17.1093 16.6 16.7027 16.6 15.052C16.6 14.116 16.5805 12.604 17.7283 12.4054C18.3302 12.3014 18.7345 12.5214 19.4066 13.0987C20.5714 14.1014 21.1824 15.3253 21.6075 16.2547C21.8896 16.8707 22.0989 17 22.7619 17H25.4581C26.8205 17 27.191 16.6587 26.5839 15.3467C25.8978 13.8753 24.9264 12.5628 23.7291 11.4894C22.9023 10.7601 22.4902 10.3961 22.4681 10.1267C22.4434 9.85873 22.7463 9.47873 23.3521 8.71874C24.5221 7.24941 26.1159 4.9441 26.8595 2.49746C27.2287 1.28413 26.8816 1.00013 25.6843 1.00013H23.2624C22.0885 1.00013 22.0898 0.958802 21.8129 2.32412C21.3631 4.53877 19.8915 6.66809 18.5083 8.11741C17.8518 8.8054 17.4553 9.22007 17.0458 9.05073C16.6364 8.8814 16.6 8.36674 16.6 7.33208Z" stroke="#282929" stroke-width="2" stroke-linecap="round" stroke-linejoin="round"/>
</svg>
